<svg width="800" height="600" viewBox="0 0 800 600" xmlns="http://www.w3.org/2000/svg">
  <rect width="800" height="600" fill="#0f172a"/>
  
  <!-- Sidebar -->
  <rect x="0" y="0" width="200" height="600" fill="#1e293b"/>
  <rect x="40" y="60" width="120" height="20" rx="4" fill="#334155"/>
  <rect x="40" y="120" width="80" height="12" rx="2" fill="#334155"/>
  <rect x="40" y="160" width="100" height="12" rx="2" fill="#334155"/>
  <rect x="40" y="200" width="90" height="12" rx="2" fill="#334155"/>
  
  <!-- Kanban Columns -->
  <rect x="240" y="80" width="160" height="480" rx="8" fill="#1e293b"/>
  <rect x="260" y="100" width="80" height="16" rx="4" fill="#64748b"/>
  <rect x="260" y="140" width="120" height="80" rx="6" fill="#334155"/>
  <rect x="260" y="240" width="120" height="80" rx="6" fill="#334155"/>
  
  <rect x="440" y="80" width="160" height="480" rx="8" fill="#1e293b"/>
  <rect x="460" y="100" width="80" height="16" rx="4" fill="#64748b"/>
  <rect x="460" y="140" width="120" height="60" rx="6" fill="#334155"/>
  
  <!-- Accent details -->
  <circle cx="750" cy="50" r="20" fill="#3b82f6"/>
  
  <rect x="0" y="0" width="800" height="600" fill="#000000" opacity="0.2"/>
</svg>
